<?xml version="1.0" encoding="utf-8"?>
<!-- Generator: Adobe Illustrator 24.0.1, SVG Export Plug-In . SVG Version: 6.00 Build 0)  -->
<svg version="1.1" id="Layer_1" xmlns="http://www.w3.org/2000/svg" xmlns:xlink="http://www.w3.org/1999/xlink" x="0px" y="0px"
	 viewBox="0 0 1000 1000" style="enable-background:new 0 0 1000 1000;" xml:space="preserve">
<style type="text/css">
	.st0{fill:url(#SVGID_1_);}
</style>
<linearGradient id="SVGID_1_" gradientUnits="userSpaceOnUse" x1="282.2523" y1="659.1392" x2="761.3715" y2="231.481">
	<stop  offset="0" style="stop-color:#456DC7"/>
	<stop  offset="1" style="stop-color:#4EE4FF"/>
</linearGradient>
<path class="st0" d="M798.25,309.37c-150.71,4.06-118.12-38.93-193.96-38.93c-131.12,0-87.49,104.88-313.7,250.13
	c-3.88-15.43-5.93-31.56-5.93-48.19c0-108.89,87.53-196.86,196.42-197.38c15-0.07,29.6,1.6,43.67,4.65c6.36,1.38,9.5-7.6,2.62-9.59
	c-21.63-6.27-44.5-9.67-68.17-9.61c-132.9,0.37-239.63,107.4-239.63,240.3c0,132.72,107.59,240.31,240.31,240.31
	s240.3-107.59,240.3-240.31c0-30.86-6.36-59.98-17.72-86.75c-2.75-6.49-11.64-3.98-9.72,3.28c4.6,17.46,6.68,36.19,6.68,55.1
	c0,105.2-82.32,191.19-186.05,197.06c0.11-0.38,0.23-0.77,0.31-1.16c25.46-133.27,131.52-286.35,271.75-298.27
	c19.31-1.64,53.27-27.91,53.27-45.75C818.7,306.38,798.25,309.37,798.25,309.37z M573.56,314.72c0,15.23-15.72,26.64-38.71,34.62
	c-26.92,9.34-22.47,34.61-31.44,34.61c-8.24,0-19.78-17.03,4.6-49.45c26.77-35.61,54.38-35.09,54.38-35.09
	C571.34,299.4,573.56,309.05,573.56,314.72z"/>
</svg>
